<svg 
          width="19" 
          height="20" fill="none" 
          xmlns="http://www.w3.org/2000/svg">
          <path d="M 3 16 L 5 16 L 5 18 L 17 18 L 17 2 L 5 2 L 5 4 L 3 4 L 3 1 C 3 0.4477199912071228 3.447719991207123 0 4 0 L 18 0 C 18.552299976348877 0 19 0.4477199912071228 19 1 L 19 19 C 19 19.552299976348877 18.552299976348877 20 18 20 L 4 20 C 3.447719991207123 20 3 19.552299976348877 3 19 L 3 16 Z M 5 9 L 12 9 L 12 11 L 5 11 L 5 14 L 0 10 L 5 6 L 5 9 Z" fill="rgb(0,0,0)"/>
        </svg>